<svg width="288" height="39" viewBox="0 0 288 39" fill="none" xmlns="http://www.w3.org/2000/svg">
<path d="M53.693 11.64C53.309 11.7467 52.7863 11.8 52.125 11.8C51.4637 11.8 50.941 11.736 50.557 11.608C50.173 11.48 49.8957 11.2667 49.725 10.968C49.5757 10.648 49.4797 10.3707 49.437 10.136C49.4157 9.88001 49.405 9.50668 49.405 9.01601C49.405 8.52535 49.4157 8.16268 49.437 7.92801C49.4797 7.69335 49.5757 7.42668 49.725 7.12801C50.0237 6.57335 50.845 6.29601 52.189 6.29601C53.469 6.29601 54.269 6.57335 54.589 7.12801C54.7383 7.40535 54.8237 7.66135 54.845 7.89601C54.8877 8.13068 54.909 8.48268 54.909 8.95201V9.14401C54.909 9.61335 54.8877 9.96535 54.845 10.2C54.8237 10.4347 54.7277 10.7013 54.557 11C54.3863 11.2987 54.0983 11.512 53.693 11.64ZM50.589 14.232C50.9943 14.104 51.5277 14.04 52.189 14.04C52.8503 14.04 53.373 14.104 53.757 14.232C54.141 14.36 54.4077 14.584 54.557 14.904C54.7277 15.2027 54.8237 15.48 54.845 15.736C54.8877 15.9707 54.909 16.3333 54.909 16.824V30.008C54.909 32.504 54.045 34.4987 52.317 35.992C50.589 37.4853 48.6903 38.232 46.621 38.232C46.1303 38.232 45.7677 38.2107 45.533 38.168C45.2983 38.1467 45.0317 38.0613 44.733 37.912C44.1783 37.6133 43.901 36.8347 43.901 35.576C43.901 34.3173 44.1357 33.528 44.605 33.208C45.053 32.888 45.6717 32.728 46.461 32.728C47.229 32.728 47.9117 32.5147 48.509 32.088C49.1063 31.6613 49.405 30.8933 49.405 29.784V16.6C49.405 15.8533 49.501 15.3093 49.693 14.968C49.9063 14.6053 50.205 14.36 50.589 14.232Z" fill="#FF0000"/>
<path d="M68.4115 15.928C68.5395 14.7333 69.3822 14.136 70.9395 14.136C71.7715 14.136 72.3902 14.2 72.7955 14.328C73.2008 14.456 73.4782 14.68 73.6275 15C73.7982 15.32 73.8942 15.608 73.9155 15.864C73.9582 16.0987 73.9795 16.4613 73.9795 16.952V28.152C73.9795 28.6427 73.9582 29.016 73.9155 29.272C73.8942 29.5067 73.8088 29.784 73.6595 30.104C73.3608 30.6587 72.6248 30.936 71.4515 30.936C70.2995 30.936 69.5208 30.7973 69.1155 30.52C68.7315 30.2213 68.5075 29.7947 68.4435 29.24C67.6542 30.3707 66.3315 30.936 64.4755 30.936C62.6408 30.936 60.9342 30.0933 59.3555 28.408C57.7768 26.7227 56.9875 24.7707 56.9875 22.552C56.9875 20.312 57.7768 18.36 59.3555 16.696C60.9555 15.0107 62.7048 14.168 64.6035 14.168C65.3288 14.168 65.9902 14.296 66.5875 14.552C67.1848 14.808 67.6008 15.0533 67.8355 15.288C68.0702 15.5013 68.2622 15.7147 68.4115 15.928ZM62.5875 22.584C62.5875 23.288 62.8648 23.928 63.4195 24.504C63.9742 25.0587 64.6462 25.336 65.4355 25.336C66.2248 25.336 66.8755 25.048 67.3875 24.472C67.9208 23.896 68.1875 23.2667 68.1875 22.584C68.1875 21.88 67.9315 21.2293 67.4195 20.632C66.9288 20.0347 66.2568 19.736 65.4035 19.736C64.5715 19.736 63.8888 20.0347 63.3555 20.632C62.8435 21.2293 62.5875 21.88 62.5875 22.584Z" fill="#FF0000"/>
<path d="M82.034 16.376C83.0367 14.8613 84.242 14.104 85.65 14.104C87.826 14.104 89.4473 15.032 90.514 16.888C90.7487 16.568 91.026 16.2373 91.346 15.896C91.6873 15.5333 92.2207 15.1493 92.946 14.744C93.6713 14.3173 94.418 14.104 95.186 14.104C96.8927 14.104 98.322 14.7653 99.474 16.088C100.626 17.3893 101.202 19.5547 101.202 22.584V28.184C101.202 28.6747 101.181 29.048 101.138 29.304C101.117 29.5387 101.021 29.816 100.85 30.136C100.573 30.712 99.7513 31 98.386 31C97.042 31 96.2207 30.7013 95.922 30.104C95.7727 29.784 95.6767 29.5067 95.634 29.272C95.6127 29.016 95.602 28.6427 95.602 28.152V22.552C95.602 20.696 94.9407 19.768 93.618 19.768C92.8713 19.768 92.3593 20.0133 92.082 20.504C91.826 20.9947 91.698 21.688 91.698 22.584V28.184C91.698 28.696 91.6767 29.0693 91.634 29.304C91.6127 29.5387 91.5167 29.816 91.346 30.136C91.0473 30.712 90.2153 31 88.85 31C87.506 31 86.6847 30.7013 86.386 30.104C86.2367 29.784 86.1407 29.5067 86.098 29.272C86.0767 29.016 86.066 28.6427 86.066 28.152V22.552C86.066 20.696 85.4047 19.768 84.082 19.768C82.802 19.768 82.162 20.696 82.162 22.552V28.216C82.162 28.7067 82.1407 29.08 82.098 29.336C82.0767 29.5707 81.9807 29.848 81.81 30.168C81.49 30.7227 80.658 31 79.314 31C77.97 31 77.1487 30.712 76.85 30.136C76.7007 29.816 76.6047 29.5387 76.562 29.304C76.5407 29.0693 76.53 28.696 76.53 28.184V16.92C76.53 16.4293 76.5407 16.0667 76.562 15.832C76.6047 15.576 76.7113 15.2987 76.882 15C77.202 14.424 77.9593 14.136 79.154 14.136C80.3487 14.136 81.1273 14.328 81.49 14.712C81.8527 15.096 82.034 15.6507 82.034 16.376Z" fill="#FF0000"/>
<path d="M103.877 29.496C103.471 29.24 103.269 28.8347 103.269 28.28C103.269 27.7253 103.674 26.8827 104.485 25.752C104.719 25.3893 105.093 25.208 105.605 25.208C106.138 25.208 106.853 25.4747 107.749 26.008C108.645 26.52 109.455 26.776 110.181 26.776C111.482 26.776 112.133 26.52 112.133 26.008C112.133 25.6027 111.418 25.304 109.989 25.112C108.645 24.92 107.311 24.4187 105.989 23.608C105.37 23.224 104.858 22.6267 104.453 21.816C104.047 20.984 103.845 20.0027 103.845 18.872C103.845 15.5013 106.159 13.816 110.789 13.816C112.303 13.816 113.861 14.1787 115.461 14.904C116.207 15.2453 116.581 15.672 116.581 16.184C116.581 16.696 116.346 17.3253 115.877 18.072C115.407 18.8187 114.927 19.192 114.437 19.192C114.181 19.192 113.701 19.032 112.997 18.712C112.314 18.392 111.567 18.232 110.757 18.232C109.498 18.232 108.869 18.4667 108.869 18.936C108.869 19.576 109.594 19.992 111.045 20.184C112.453 20.3333 113.818 20.7387 115.141 21.4C115.759 21.6987 116.271 22.2213 116.677 22.968C117.103 23.6933 117.317 24.6107 117.317 25.72C117.317 26.8293 117.103 27.7787 116.677 28.568C116.271 29.336 115.695 29.912 114.949 30.296C113.583 30.9573 111.866 31.288 109.797 31.288C107.749 31.288 105.775 30.6907 103.877 29.496Z" fill="#FF0000"/>
<path d="M128.697 19.8L126.617 19.672V24.088C126.617 24.664 126.702 25.08 126.873 25.336C127.065 25.592 127.406 25.72 127.897 25.72C128.409 25.72 128.793 25.7413 129.049 25.784C129.326 25.8053 129.614 25.9013 129.913 26.072C130.404 26.3493 130.649 27.064 130.649 28.216C130.649 29.56 130.35 30.3813 129.753 30.68C129.433 30.8293 129.145 30.9253 128.889 30.968C128.654 30.9893 128.302 31 127.833 31C125.614 31 123.929 30.4987 122.777 29.496C121.625 28.4933 121.049 26.7973 121.049 24.408V19.672C120.644 19.736 120.206 19.768 119.737 19.768C119.268 19.768 118.873 19.5867 118.553 19.224C118.254 18.8613 118.105 18.2427 118.105 17.368C118.105 16.4933 118.158 15.864 118.265 15.48C118.372 15.0747 118.521 14.7867 118.713 14.616C119.054 14.3387 119.481 14.2 119.993 14.2L121.049 14.328V11.032C121.049 10.5413 121.06 10.1787 121.081 9.94401C121.124 9.70935 121.23 9.45335 121.401 9.17601C121.678 8.64268 122.5 8.37601 123.865 8.37601C125.316 8.37601 126.18 8.77068 126.457 9.56001C126.564 9.90135 126.617 10.4453 126.617 11.192V14.328C127.556 14.2427 128.26 14.2 128.729 14.2C129.22 14.2 129.582 14.2213 129.817 14.264C130.073 14.2853 130.361 14.3813 130.681 14.552C131.236 14.8293 131.513 15.6507 131.513 17.016C131.513 18.36 131.225 19.1813 130.649 19.48C130.329 19.6293 130.041 19.7253 129.785 19.768C129.55 19.7893 129.188 19.8 128.697 19.8Z" fill="#FF0000"/>
<path d="M144.224 15.928C144.352 14.7333 145.195 14.136 146.752 14.136C147.584 14.136 148.203 14.2 148.608 14.328C149.013 14.456 149.291 14.68 149.44 15C149.611 15.32 149.707 15.608 149.728 15.864C149.771 16.0987 149.792 16.4613 149.792 16.952V28.152C149.792 28.6427 149.771 29.016 149.728 29.272C149.707 29.5067 149.621 29.784 149.472 30.104C149.173 30.6587 148.437 30.936 147.264 30.936C146.112 30.936 145.333 30.7973 144.928 30.52C144.544 30.2213 144.32 29.7947 144.256 29.24C143.467 30.3707 142.144 30.936 140.288 30.936C138.453 30.936 136.747 30.0933 135.168 28.408C133.589 26.7227 132.8 24.7707 132.8 22.552C132.8 20.312 133.589 18.36 135.168 16.696C136.768 15.0107 138.517 14.168 140.416 14.168C141.141 14.168 141.803 14.296 142.4 14.552C142.997 14.808 143.413 15.0533 143.648 15.288C143.883 15.5013 144.075 15.7147 144.224 15.928ZM138.4 22.584C138.4 23.288 138.677 23.928 139.232 24.504C139.787 25.0587 140.459 25.336 141.248 25.336C142.037 25.336 142.688 25.048 143.2 24.472C143.733 23.896 144 23.2667 144 22.584C144 21.88 143.744 21.2293 143.232 20.632C142.741 20.0347 142.069 19.736 141.216 19.736C140.384 19.736 139.701 20.0347 139.168 20.632C138.656 21.2293 138.4 21.88 138.4 22.584Z" fill="#FF0000"/>
<path d="M157.622 22.584C157.622 23.48 157.921 24.184 158.519 24.696C159.116 25.1867 159.745 25.432 160.407 25.432C161.089 25.432 161.719 25.24 162.295 24.856C162.892 24.4507 163.372 24.248 163.734 24.248C164.374 24.248 165.153 24.8133 166.071 25.944C166.561 26.5627 166.807 27.1173 166.807 27.608C166.807 28.4187 166.22 29.176 165.047 29.88C163.831 30.7333 162.337 31.16 160.566 31.16C158.582 31.16 156.673 30.4453 154.839 29.016C153.964 28.3333 153.249 27.4267 152.695 26.296C152.14 25.144 151.863 23.8853 151.863 22.52C151.863 21.1333 152.14 19.8853 152.695 18.776C153.249 17.6453 153.964 16.7387 154.839 16.056C156.609 14.648 158.497 13.944 160.503 13.944C161.313 13.944 162.103 14.0613 162.87 14.296C163.638 14.5093 164.204 14.7227 164.566 14.936L165.078 15.256C165.463 15.512 165.761 15.7147 165.975 15.864C166.529 16.2907 166.807 16.7813 166.807 17.336C166.807 17.8693 166.582 18.4773 166.134 19.16C165.367 20.3333 164.631 20.92 163.926 20.92C163.521 20.92 162.945 20.6853 162.199 20.216C161.814 19.8533 161.26 19.672 160.535 19.672C159.83 19.672 159.169 19.928 158.55 20.44C157.932 20.952 157.622 21.6667 157.622 22.584Z" fill="#FF0000"/>
<path d="M178.794 22.552L183.05 26.072C183.583 26.52 183.914 26.8613 184.042 27.096C184.191 27.3307 184.266 27.5547 184.266 27.768C184.266 28.28 183.935 28.9733 183.274 29.848C182.548 30.744 181.908 31.192 181.354 31.192C180.884 31.192 180.234 30.8827 179.402 30.264L179.082 30.04C178.591 29.6347 177.834 28.9307 176.81 27.928C175.786 26.904 175.007 26.1787 174.474 25.752V28.216C174.474 28.7067 174.452 29.08 174.41 29.336C174.388 29.5707 174.292 29.848 174.122 30.168C173.844 30.7227 173.023 31 171.658 31C170.314 31 169.492 30.712 169.194 30.136C169.044 29.816 168.948 29.5387 168.906 29.304C168.884 29.048 168.874 28.6747 168.874 28.184V9.01601C168.874 8.52535 168.884 8.16268 168.906 7.92801C168.948 7.67201 169.044 7.38401 169.194 7.06401C169.492 6.48801 170.324 6.20001 171.69 6.20001C172.714 6.20001 173.439 6.38135 173.866 6.74401C174.228 7.04268 174.42 7.51201 174.442 8.15201C174.463 8.34401 174.474 8.64268 174.474 9.04801V19.192C174.858 18.872 175.434 18.328 176.202 17.56C176.991 16.792 177.578 16.248 177.962 15.928L178.346 15.672C179.092 15.096 179.732 14.808 180.266 14.808C180.799 14.808 181.407 15.2453 182.09 16.12C182.794 16.9733 183.146 17.6453 183.146 18.136C183.146 18.6267 182.751 19.2027 181.962 19.864L178.794 22.552Z" fill="#FF0000"/>
<path d="M196.357 7.12801C196.528 6.80801 196.816 6.58401 197.221 6.45601C197.627 6.32801 198.16 6.26401 198.821 6.26401C199.504 6.26401 200.048 6.32801 200.453 6.45601C200.859 6.58401 201.136 6.80801 201.285 7.12801C201.456 7.44801 201.552 7.73601 201.573 7.99201C201.616 8.22668 201.637 8.58935 201.637 9.08001V28.184C201.637 28.6747 201.616 29.048 201.573 29.304C201.552 29.5387 201.456 29.8053 201.285 30.104C200.965 30.68 200.059 30.968 198.565 30.968C197.093 30.968 196.272 30.4453 196.101 29.4C195.205 30.424 193.957 30.936 192.357 30.936C190.437 30.936 188.688 30.104 187.109 28.44C185.531 26.7547 184.741 24.8027 184.741 22.584C184.741 20.344 185.531 18.3813 187.109 16.696C188.709 15.0107 190.459 14.168 192.357 14.168C193.936 14.168 195.163 14.7013 196.037 15.768V9.04801C196.037 8.55735 196.048 8.19468 196.069 7.96001C196.112 7.70401 196.208 7.42668 196.357 7.12801ZM191.173 24.504C191.728 25.08 192.4 25.368 193.189 25.368C193.979 25.368 194.629 25.08 195.141 24.504C195.675 23.928 195.941 23.2987 195.941 22.616C195.941 21.912 195.685 21.2613 195.173 20.664C194.683 20.0667 194.011 19.768 193.157 19.768C192.304 19.768 191.621 20.0667 191.109 20.664C190.597 21.24 190.341 21.88 190.341 22.584C190.341 23.288 190.619 23.928 191.173 24.504Z" fill="#FF0000"/>
<path d="M220.442 20.568C220.442 21.8693 220.112 22.84 219.45 23.48C218.81 24.0987 218.096 24.408 217.306 24.408H209.722C209.722 25.0053 210.074 25.5067 210.778 25.912C211.482 26.3173 212.186 26.52 212.89 26.52C214.128 26.52 215.098 26.392 215.802 26.136L216.154 26.008C216.666 25.7733 217.093 25.656 217.434 25.656C218.117 25.656 218.704 26.136 219.194 27.096C219.472 27.672 219.61 28.1627 219.61 28.568C219.61 30.4667 217.338 31.416 212.794 31.416C211.216 31.416 209.808 31.1493 208.57 30.616C207.354 30.0613 206.405 29.336 205.722 28.44C204.378 26.712 203.706 24.7813 203.706 22.648C203.706 19.96 204.57 17.816 206.298 16.216C208.048 14.5947 210.224 13.784 212.826 13.784C215.792 13.784 217.968 14.8293 219.354 16.92C220.08 18.0293 220.442 19.2453 220.442 20.568ZM213.69 21.496C214.501 21.496 214.906 21.1547 214.906 20.472C214.906 19.9813 214.714 19.5867 214.33 19.288C213.968 18.9893 213.434 18.84 212.73 18.84C212.048 18.84 211.365 19.128 210.682 19.704C210 20.2587 209.658 20.856 209.658 21.496H213.69Z" fill="#FF0000"/>
<path d="M222.53 35.576V16.888C222.53 16.3973 222.541 16.0347 222.562 15.8C222.605 15.5653 222.701 15.2987 222.85 15C223.149 14.424 223.863 14.136 224.994 14.136C226.125 14.136 226.882 14.2853 227.266 14.584C227.671 14.8613 227.906 15.2773 227.97 15.832C228.781 14.7227 230.05 14.168 231.778 14.168C233.527 14.168 235.181 14.9893 236.738 16.632C238.295 18.2747 239.074 20.184 239.074 22.36C239.074 24.536 238.295 26.4453 236.738 28.088C235.202 29.7307 233.559 30.552 231.81 30.552C230.061 30.552 228.791 30.0613 228.002 29.08V35.544C228.002 36.0347 227.981 36.3973 227.938 36.632C227.917 36.8667 227.821 37.1333 227.65 37.432C227.501 37.752 227.234 37.976 226.85 38.104C226.466 38.232 225.943 38.296 225.282 38.296C224.621 38.296 224.087 38.232 223.682 38.104C223.298 37.976 223.021 37.7627 222.85 37.464C222.701 37.1653 222.605 36.8987 222.562 36.664C222.541 36.4293 222.53 36.0667 222.53 35.576ZM228.866 20.504C228.375 21.08 228.13 21.7093 228.13 22.392C228.13 23.0747 228.375 23.704 228.866 24.28C229.378 24.8347 230.018 25.112 230.786 25.112C231.575 25.112 232.237 24.8347 232.77 24.28C233.325 23.7253 233.602 23.096 233.602 22.392C233.602 21.688 233.346 21.0587 232.834 20.504C232.322 19.928 231.65 19.64 230.818 19.64C230.007 19.64 229.357 19.928 228.866 20.504Z" fill="#FF0000"/>
<path d="M241.155 9.01601C241.155 8.52535 241.166 8.16268 241.187 7.92801C241.23 7.67201 241.326 7.38401 241.475 7.06401C241.774 6.48801 242.606 6.20001 243.971 6.20001C245.272 6.20001 246.083 6.48801 246.403 7.06401C246.574 7.38401 246.67 7.67201 246.691 7.92801C246.734 8.18401 246.755 8.55735 246.755 9.04801V23.864C246.755 24.632 246.819 25.1227 246.947 25.336C247.075 25.528 247.352 25.624 247.779 25.624C248.227 25.624 248.526 25.6453 248.675 25.688C248.824 25.7093 249.006 25.7947 249.219 25.944C249.646 26.2213 249.859 26.9787 249.859 28.216C249.859 29.56 249.646 30.3813 249.219 30.68C248.664 31.064 247.342 31.128 245.251 30.872C243.608 30.6587 242.542 30.1147 242.051 29.24C241.454 28.1947 241.155 26.5307 241.155 24.248V9.01601Z" fill="#FF0000"/>
<path d="M251.144 22.584C251.144 20.024 252.04 17.912 253.832 16.248C255.624 14.584 257.672 13.752 259.976 13.752C262.28 13.752 264.317 14.584 266.088 16.248C267.858 17.8907 268.744 19.992 268.744 22.552C268.744 24.3227 268.285 25.9013 267.368 27.288C266.45 28.6533 265.33 29.6667 264.008 30.328C262.706 30.968 261.352 31.288 259.944 31.288C258.536 31.288 257.17 30.9467 255.848 30.264C254.525 29.56 253.405 28.536 252.488 27.192C251.592 25.8267 251.144 24.2907 251.144 22.584ZM257.832 24.888C258.514 25.4 259.208 25.656 259.912 25.656C260.616 25.656 261.32 25.3893 262.024 24.856C262.728 24.3227 263.08 23.5333 263.08 22.488C263.08 21.4427 262.749 20.664 262.088 20.152C261.426 19.64 260.712 19.384 259.944 19.384C259.176 19.384 258.461 19.6507 257.8 20.184C257.138 20.7173 256.808 21.5067 256.808 22.552C256.808 23.576 257.149 24.3547 257.832 24.888Z" fill="#FF0000"/>
<path d="M285.523 14.328C286.781 14.8827 287.411 15.5547 287.411 16.344C287.411 16.728 287.325 17.0907 287.154 17.432C286.984 17.7733 286.898 17.9547 286.898 17.976L278.514 36.728C278.344 37.1333 278.195 37.4427 278.066 37.656C277.96 37.8693 277.779 38.072 277.523 38.264C277.267 38.456 276.947 38.552 276.562 38.552C276.178 38.552 275.613 38.392 274.867 38.072C273.608 37.5173 272.979 36.856 272.979 36.088C272.979 35.576 274.003 33.1333 276.051 28.76L269.682 18.04C269.256 17.336 269.042 16.8133 269.042 16.472C269.042 15.7893 269.619 15.1067 270.771 14.424C271.496 13.9973 272.061 13.784 272.467 13.784C272.872 13.784 273.202 13.8693 273.458 14.04C273.714 14.2107 273.896 14.392 274.003 14.584C274.131 14.7547 274.717 15.7467 275.762 17.56C276.829 19.352 277.842 21.0267 278.803 22.584C278.909 22.2427 279.485 20.9307 280.531 18.648C281.576 16.344 282.131 15.1173 282.195 14.968C282.28 14.8187 282.408 14.6373 282.579 14.424C282.856 14.0613 283.24 13.88 283.73 13.88C284.242 13.88 284.84 14.0293 285.523 14.328Z" fill="#FF0000"/>
<path d="M28.3913 5.31818V1.77261H10.6641V5.31818C10.6641 8.86374 5.34595 8.86374 5.34595 15.9545V35.4546C5.34595 37.4126 6.93322 38.9999 8.89119 38.9999H30.1639C32.1222 38.9999 33.7095 37.4126 33.7095 35.4546V15.9545C33.7095 8.86374 28.3913 8.86374 28.3913 5.31818Z" fill="#F0E2E2"/>
<path d="M30.164 38.9999H26.6188V37.2273H30.164C31.1427 37.226 31.9357 36.433 31.937 35.4547V15.9546C31.937 12.5648 30.5233 11.2327 29.1574 9.94468C28.0262 8.87935 26.6188 7.55305 26.6188 5.31821H28.3914C28.3914 6.787 29.3097 7.6527 30.3727 8.65506C31.8597 10.0563 33.7096 11.7997 33.7096 15.9546V35.4547C33.7076 37.412 32.1213 38.998 30.164 38.9999Z" fill="#F0E2E2"/>
<path d="M24.8457 35.4546V15.9545C24.8457 8.86374 19.5275 8.86374 19.5275 5.31818V1.77261H10.6641V5.31818C10.6641 8.86374 5.34595 8.86374 5.34595 15.9545V35.4546C5.34595 37.4126 6.93322 38.9999 8.89118 38.9999H21.3005C23.2585 38.9999 24.8457 37.4126 24.8457 35.4546Z" fill="#F0E2E2"/>
<path d="M7.11865 15.9545H8.89127V28.3635H7.11865V15.9545Z" fill="#EDEBEB"/>
<path d="M30.1639 7.0908C30.1639 5.31818 28.3913 5.31818 28.3913 5.31818V3.54556C29.3703 3.54556 30.1639 2.75193 30.1639 1.77262C30.1639 0.793637 29.3703 0 28.3913 0H10.6641C9.68547 0.000649192 8.89248 0.794287 8.89248 1.77262C8.89248 2.75128 9.68547 3.54491 10.6641 3.54556V5.31818C10.6641 5.31818 8.89119 5.31818 8.89119 7.0908C8.89119 10.6364 5.34595 10.6364 5.34595 10.6364C5.34595 10.6364 5.34595 12.409 8.89119 12.409C12.4367 12.409 12.4367 10.6364 14.2094 10.6364C15.9823 10.6364 17.7549 12.409 19.5276 12.409C21.3005 12.409 23.0731 10.6364 24.8457 10.6364C26.6187 10.6364 26.6187 12.409 30.1639 12.409C33.7095 12.409 33.7095 10.6364 33.7095 10.6364C33.7095 10.6364 30.1639 10.6364 30.1639 7.0908Z" fill="#FF0000"/>
<path d="M30.164 12.409C28.0866 12.409 27.215 11.7929 26.5149 11.2969C26.0127 10.9418 25.5801 10.6364 24.8458 10.6364V8.86374C26.1436 8.86374 26.9492 9.43308 27.537 9.84856C28.1353 10.2718 28.6501 10.6364 30.164 10.6364C31.0219 10.6364 31.5163 10.5143 31.7792 10.4114L32.4232 12.063C31.8337 12.2921 31.0738 12.409 30.164 12.409Z" fill="#FF0000"/>
<path d="M10.6642 3.54556H28.3913V5.31818H10.6642V3.54556Z" fill="#EF7F00"/>
<path d="M8.89118 12.409C12.4367 12.409 12.4367 10.6364 14.2094 10.6364C15.9823 10.6364 17.7549 12.409 19.5275 12.409C21.3005 12.409 23.0731 10.6364 24.8457 10.6364C24.8457 10.6364 21.3005 10.6364 21.3005 7.0908C21.3005 5.31818 19.5275 5.31818 19.5275 5.31818V3.54556C20.5069 3.54556 21.3005 2.75193 21.3005 1.77262C21.3005 0.793637 20.5069 0 19.5275 0H10.6641C9.68547 0.000649192 8.89248 0.794287 8.89248 1.77262C8.89248 2.75128 9.68547 3.54491 10.6641 3.54556V5.31818C10.6641 5.31818 8.89118 5.31818 8.89118 7.0908C8.89118 10.6364 5.34595 10.6364 5.34595 10.6364C5.34595 10.6364 5.34595 12.409 8.89118 12.409Z" fill="#FF0000"/>
<path d="M19.5276 12.409C18.6414 12.409 17.78 11.9789 16.8685 11.5228C15.9544 11.0658 15.0943 10.6364 14.2094 10.6364C13.4755 10.6364 13.0428 10.9418 12.5416 11.2969C11.8405 11.7929 10.9686 12.409 8.89124 12.409V10.6364C10.4052 10.6364 10.9203 10.2718 11.5175 9.84954C12.106 9.43308 12.912 8.86374 14.2094 8.86374C15.513 8.86374 16.6514 9.43243 17.6563 9.93426C18.3487 10.2806 19.0602 10.6364 19.5276 10.6364C19.995 10.6364 20.7065 10.2806 21.394 9.93685L22.1867 11.5228C21.2752 11.9789 20.4141 12.409 19.5276 12.409Z" fill="#FF0000"/>
<path d="M10.6642 3.54556H19.5276V5.31818H10.6642V3.54556Z" fill="#FDAB00"/>
<path d="M26.6188 3.54556H24.8458L26.6188 15.9545H28.3914L26.6188 3.54556Z" fill="#FDBC34"/>
<path d="M26.6187 3.54556C26.6187 4.52454 25.825 5.31818 24.8457 5.31818C23.8668 5.31818 23.0731 4.52454 23.0731 3.54556C23.0731 2.56625 23.8668 1.77261 24.8457 1.77261C25.825 1.77261 26.6187 2.56625 26.6187 3.54556Z" fill="#FDAB00"/>
<path d="M24.8458 3.54556H23.0732L21.3005 15.9545H23.0732L24.8458 3.54556Z" fill="#FDCF6D"/>
<path d="M31.9369 23.3699C31.9369 21.6736 30.0806 20.6992 28.64 21.595C27.3157 22.4185 25.508 23.0453 23.0732 23.0453C19.4046 23.0453 17.1597 21.622 14.8651 20.248C11.4546 18.2056 7.11865 20.6735 7.11865 24.6488V31.1242C7.11865 34.4948 9.8511 37.2273 13.2217 37.2273H25.8336C29.2045 37.2273 31.9369 34.4948 31.9369 31.1242V23.3699Z" fill="#FF0000"/>
<path d="M23.0732 31.1242V23.3699C23.0667 23.2599 23.0518 23.1508 23.0284 23.0434C19.3874 23.0311 17.1496 21.6161 14.8651 20.248C11.4546 18.2056 7.11865 20.6735 7.11865 24.6488V31.1242C7.11865 34.4948 9.8511 37.2273 13.2217 37.2273H16.9701C20.3408 37.2273 23.0732 34.4948 23.0732 31.1242Z" fill="#FF0000"/>
<path d="M13.222 37.2273C9.85272 37.2234 7.12255 34.4932 7.11865 31.1239V24.6485C7.11865 21.4779 9.78294 19.5147 12.2508 19.5147V21.2873C10.6356 21.2873 8.89127 22.5727 8.89127 24.6485V31.1239C8.89387 33.5145 10.8314 35.452 13.222 35.4546V37.2273Z" fill="#FF4B55"/>
<path d="M30.1639 1.77262H23.0731V0H28.3913C30.1639 0 30.1639 1.77262 30.1639 1.77262Z" fill="#FF0000"/>
<path d="M7.11865 24.8183H8.89127V31.9091H7.11865V24.8183Z" fill="#ECB8B5"/>
</svg>
