<svg width="118" height="24" viewBox="0 0 118 24" fill="none" xmlns="http://www.w3.org/2000/svg">
	<path d="M26.6706 4.17C24.1272 0.75 16.3026 0 13.5 0C10.6974 0 2.8728 0.75 0.3294 4.17L0 4.6125V5.25C0 8.31 0.54 13.11 1.7334 16.4175L1.8144 16.635L1.9386 16.8075C4.428 20.25 9.5526 24 13.5 24C17.4474 24 22.572 20.25 25.0614 16.8075L25.1856 16.635L25.2666 16.4175C26.46 13.11 27 8.31 27 5.25V4.6125L26.6706 4.17ZM10.5 14.25V18.75C8.98748 18.1329 8.10623 17.4061 6.75 16.29V5.25C8.1789 4.88948 9.05115 4.6391 10.5 4.5V9.75H16.5V4.5C17.9489 4.6391 18.8211 4.88948 20.25 5.25V16.29C18.8938 17.4061 18.0125 18.1329 16.5 18.75V14.25H10.5Z" fill="#0E103B"/>
	<path d="M36 7.70215H38.7987V11.4786H42.3904V7.70215H45.1877V17.7989H42.3904V13.9617H38.7987V17.7989H36V7.70215Z" fill="#0E103B"/>
	<path d="M47.2425 12.7507C47.2425 9.85087 49.5785 7.5 52.6941 7.5C55.8097 7.5 58.1174 9.82254 58.1174 12.7507C58.1174 15.6491 55.7814 18 52.6658 18C49.5502 18 47.2425 15.6788 47.2425 12.7507ZM55.2621 12.7507C55.2621 11.2927 54.2088 10.0235 52.6658 10.0235C51.1228 10.0235 50.1086 11.2644 50.1086 12.7507C50.1086 14.2073 51.1606 15.4765 52.6901 15.4765C54.2196 15.4765 55.2621 14.2356 55.2621 12.7507Z" fill="#0E103B"/>
	<path d="M59.6775 16.3042L61.2353 14.4429C62.2307 15.2359 63.3407 15.6568 64.51 15.6568C65.26 15.6568 65.6632 15.3978 65.6632 14.9365C65.6632 14.5171 65.3314 14.2864 63.9611 13.9695C61.8126 13.4718 60.1536 12.8648 60.1536 10.7595C60.1536 8.88335 61.6372 7.52246 64.065 7.52246C65.7819 7.52246 67.1226 7.98373 68.2191 8.87121L66.8178 10.8458C65.8939 10.197 64.885 9.8504 63.9854 9.8504C63.311 9.8504 62.9752 10.139 62.9752 10.5248C62.9752 10.986 63.3218 11.1884 64.7205 11.5053C67.043 12.0097 68.4848 12.7596 68.4848 14.6789C68.4848 16.7411 66.8555 17.9672 64.4035 17.9672C62.6205 17.9712 60.9251 17.4088 59.6775 16.3042Z" fill="#0E103B"/>
	<path d="M73.5293 10.1542H70.5V7.70215H79.3559V10.1542H76.3266V17.7989H73.5293V10.1542Z" fill="#0E103B"/>
	<path d="M81.8475 7.70215H84.8053L87.2142 11.6135L89.6231 7.70215H92.5795V17.7989H89.7957V11.9993L87.2142 15.9511H87.1562L84.5936 12.0289V17.7989H81.8475V7.70215Z" fill="#0E103B"/>
	<path d="M98.7985 7.62988H101.496L105.796 17.7994H102.795L102.058 15.9962H98.1645L97.443 17.7994H94.5L98.7985 7.62988ZM101.25 13.8179L100.131 10.9478L98.9913 13.8179H101.25Z" fill="#0E103B"/>
	<path d="M107.715 7.70215H110.325L114.479 13.0391V7.70215H117.249V17.7989H114.803L110.489 12.2582V17.7975H107.715V7.70215Z" fill="#0E103B"/>
</svg>
