<svg enable-background="new 0 0 511.999 511.999" viewBox="0 0 511.999 511.999" xmlns="http://www.w3.org/2000/svg"><path d="m211.862 423.724h-203.034c-4.875 0-8.828-3.953-8.828-8.828v-317.792c0-4.875 3.953-8.828 8.828-8.828h203.034z" fill="#f5f5f5"/><path d="m141.241 88.277 70.621 20.965-70.621 20.965 70.621 20.965-70.621 20.965 70.621 20.965-70.621 20.965 70.621 20.965-70.621 20.965 70.621 20.965-70.621 20.965 70.621 20.965-70.621 20.965 70.621 20.965-70.621 20.965 70.621 20.965-70.621 20.965h361.93c4.875 0 8.828-3.953 8.828-8.828v-317.785c0-4.875-3.953-8.828-8.828-8.828h-361.93z" fill="#ff4b55"/></svg>