<svg enable-background="new 0 0 512.001 512.001" viewBox="0 0 512.001 512.001" xmlns="http://www.w3.org/2000/svg"><path d="m503.172 423.725h-494.344c-4.875 0-8.828-3.953-8.828-8.828v-317.793c0-4.875 3.953-8.828 8.828-8.828h494.345c4.875 0 8.828 3.953 8.828 8.828v317.793c-.001 4.876-3.954 8.828-8.829 8.828z" fill="#73af00"/><path d="m251.41 135.209-186.056 113.251c-5.651 3.439-5.651 11.641 0 15.081l186.056 113.252c2.819 1.716 6.36 1.716 9.18 0l186.057-113.251c5.651-3.439 5.651-11.641 0-15.081l-186.057-113.252c-2.819-1.716-6.361-1.716-9.18 0z" fill="#ffe15a"/><circle cx="256" cy="256.001" fill="#41479b" r="70.62"/><g fill="#f5f5f5"><path d="m195.401 219.874c-3.332 5.578-5.905 11.64-7.605 18.077 39.149-2.946 97.062 8.006 133.922 43.773 2.406-6.141 3.994-12.683 4.59-19.522-38.061-32.033-90.68-43.424-130.907-42.328z"/><path d="m258.925 280.1 1.88 5.638 5.943.046c.769.006 1.088.988.47 1.445l-4.781 3.531 1.793 5.666c.232.734-.604 1.341-1.229.893l-4.835-3.456-4.835 3.456c-.626.448-1.461-.159-1.229-.893l1.793-5.666-4.781-3.531c-.619-.457-.3-1.439.469-1.445l5.943-.046 1.88-5.638c.243-.73 1.275-.73 1.519 0z"/><path d="m282.024 294.685.809 2.426 2.558.02c.331.002.469.425.202.622l-2.058 1.519.771 2.439c.1.316-.259.577-.529.384l-2.081-1.487-2.081 1.487c-.269.193-.629-.068-.529-.384l.771-2.439-2.058-1.519c-.266-.196-.129-.619.202-.622l2.558-.02.809-2.426c.106-.315.551-.315.656 0z"/><path d="m248.938 269.39.809 2.426 2.558.02c.331.002.469.425.202.622l-2.058 1.519.771 2.439c.1.316-.259.577-.529.384l-2.081-1.487-2.081 1.487c-.269.193-.629-.068-.529-.384l.771-2.439-2.058-1.519c-.266-.196-.129-.619.202-.622l2.558-.02.809-2.426c.106-.314.551-.314.656 0z"/><path d="m204.13 266.448.809 2.426 2.558.02c.331.002.469.425.202.622l-2.058 1.519.771 2.439c.1.316-.259.577-.529.384l-2.081-1.487-2.081 1.487c-.269.193-.629-.068-.529-.384l.771-2.439-2.058-1.519c-.266-.196-.129-.619.202-.622l2.558-.02.809-2.426c.107-.314.551-.314.656 0z"/><path d="m241.614 293.847.809 2.426 2.558.02c.331.002.469.425.202.622l-2.058 1.519.771 2.439c.1.316-.259.577-.529.384l-2.081-1.487-2.081 1.487c-.269.193-.629-.068-.529-.384l.771-2.439-2.058-1.519c-.266-.196-.129-.619.202-.622l2.558-.02.809-2.426c.107-.313.552-.313.656 0z"/><path d="m220.99 264.755.662 1.984 2.092.017c.27.002.383.348.166.509l-1.683 1.242.631 1.994c.082.258-.212.472-.433.314l-1.702-1.216-1.702 1.216c-.221.158-.514-.056-.433-.314l.631-1.994-1.683-1.242c-.217-.161-.106-.507.166-.509l2.092-.017.662-1.984c.085-.257.448-.257.534 0z"/><path d="m283.819 223.794.828 2.482 2.616.02c.339.002.479.435.206.636l-2.104 1.554.789 2.495c.103.323-.266.59-.541.393l-2.129-1.522-2.129 1.522c-.276.198-.643-.071-.541-.393l.789-2.495-2.104-1.554c-.273-.201-.132-.633.206-.636l2.616-.02.828-2.482c.108-.322.563-.322.67 0z"/><path d="m207.012 252.617.662 1.984 2.092.017c.27.002.383.348.166.509l-1.683 1.242.631 1.994c.082.258-.212.472-.433.314l-1.702-1.216-1.702 1.216c-.221.158-.514-.056-.433-.314l.631-1.994-1.683-1.242c-.217-.161-.106-.506.166-.509l2.092-.017.662-1.984c.085-.257.448-.257.534 0z"/><path d="m217.112 280.581 1.002 3.006 3.168.024c.41.003.58.526.25.77l-2.549 1.882.956 3.02c.124.391-.321.715-.655.476l-2.578-1.842-2.578 1.842c-.333.238-.779-.085-.655-.476l.956-3.02-2.549-1.882c-.33-.244-.16-.767.25-.77l3.168-.024 1.002-3.006c.133-.388.683-.388.812 0z"/><path d="m294.903 295.315.63 1.891 1.993.015c.258.002.365.331.158.484l-1.603 1.184.601 1.9c.078.246-.202.449-.413.299l-1.621-1.159-1.622 1.159c-.21.15-.49-.053-.413-.299l.601-1.9-1.603-1.184c-.207-.153-.1-.482.158-.484l1.993-.015.63-1.891c.083-.245.43-.245.511 0z"/><path d="m301.877 280.885.809 2.426 2.558.02c.331.002.469.425.202.622l-2.058 1.519.771 2.439c.1.316-.259.577-.529.384l-2.081-1.487-2.081 1.487c-.269.193-.629-.068-.529-.384l.771-2.439-2.058-1.519c-.266-.196-.129-.619.202-.622l2.558-.02.809-2.426c.106-.315.551-.315.656 0z"/></g></svg>