<svg enable-background="new 0 0 512.001 512.001" viewBox="0 0 512.001 512.001" xmlns="http://www.w3.org/2000/svg"><path d="m503.172 423.722h-494.344c-4.875 0-8.828-3.953-8.828-8.828v-317.793c0-4.875 3.953-8.828 8.828-8.828h494.345c4.875 0 8.828 3.953 8.828 8.828v317.793c-.001 4.876-3.954 8.828-8.829 8.828z" fill="#fff"/><path d="m114.76 88.278h282.48v335.45h-282.48z" fill="#ffffff"/><g fill="#ff4b55"><path d="m8.828 88.274c-4.875 0-8.828 3.952-8.828 8.827v317.793c0 4.875 3.953 8.828 8.828 8.828h105.931v-335.448z"/><path d="m503.172 88.274h-105.931v335.448h105.931c4.875 0 8.828-3.953 8.828-8.828v-317.793c0-4.875-3.953-8.827-8.828-8.827z"/><path d="m309.569 294.758 52.383-29.932-12.02-6.01c-3.371-1.686-5.301-5.326-4.802-9.063l3.911-29.322-22.177 6.452c-4.899 1.426-9.983-1.588-11.085-6.569l-2.124-9.6-20.823 24.37c-2.887 3.378-8.386.798-7.633-3.582l8.893-51.708-13.615 3.724c-3.977 1.088-8.177-.722-10.116-4.36l-14.337-26.871v-.04l-.01.02-.011-.02v.04l-14.337 26.871c-1.941 3.637-6.141 5.447-10.118 4.36l-13.616-3.724 8.893 51.708c.753 4.378-4.747 6.959-7.634 3.582l-20.823-24.37-2.124 9.6c-1.102 4.982-6.186 7.994-11.085 6.569l-22.177-6.452 3.911 29.322c.499 3.736-1.431 7.377-4.802 9.063l-12.02 6.01 52.383 29.933c5.426 3.101 7.804 9.677 5.615 15.53l-4.478 11.977 44.885-3.832c2.484-.212 4.598 1.788 4.525 4.279l-1.414 48.044h8.828l-1.415-48.046c-.073-2.492 2.041-4.491 4.525-4.279l44.906 3.834-4.478-11.977c-2.187-5.854.19-12.431 5.616-15.531z"/></g></svg>
