<svg enable-background="new 0 0 512.001 512.001" viewBox="0 0 512.001 512.001" xmlns="http://www.w3.org/2000/svg"><path d="m512 200.093h-512v-102.989c0-4.875 3.953-8.828 8.828-8.828h494.345c4.875 0 8.828 3.953 8.828 8.828z" fill="#fab446"/><path d="m503.172 423.725h-494.344c-4.875 0-8.828-3.953-8.828-8.828v-102.988h512v102.988c0 4.876-3.953 8.828-8.828 8.828z" fill="#73af00"/><path d="m0 200.091h512v111.81h-512z" fill="#ffffff"/><g fill="#41479b"><path d="m256 303.449c-26.164 0-47.448-21.284-47.448-47.448s21.284-47.448 47.448-47.448 47.448 21.284 47.448 47.448-21.284 47.448-47.448 47.448zm0-86.069c-21.298 0-38.621 17.323-38.621 38.621s17.323 38.621 38.621 38.621 38.621-17.323 38.621-38.621-17.323-38.621-38.621-38.621z"/><circle cx="256" cy="256.001" r="5.379"/><path d="m256 256.808-13.67 1.38-29.364-1.38v-1.614l29.364-1.38 13.67 1.38z"/><path d="m256 256.808 13.67 1.38 29.364-1.38v-1.614l-29.364-1.38-13.67 1.38z"/><path d="m255.193 256.001-1.38-13.67 1.38-29.364h1.614l1.38 29.364-1.38 13.67z"/><path d="m255.193 256.001-1.38 13.67 1.38 29.364h1.614l1.38-29.364-1.38-13.67z"/><path d="m255.43 256.571-10.642-8.689-19.788-21.74 1.141-1.141 21.74 19.788 8.689 10.642z"/><path d="m255.43 256.571 8.689 10.642 21.74 19.788 1.141-1.141-19.788-21.74-10.642-8.689z"/><path d="m255.43 255.431 8.689-10.642 21.74-19.788 1.141 1.141-19.788 21.74-10.642 8.689z"/><path d="m255.43 255.431-10.642 8.689-19.788 21.74 1.141 1.141 21.74-19.788 8.689-10.642z"/><path d="m256.309 256.747-12.102 6.506-27.656 9.962-.618-1.491 26.601-12.512 13.157-3.957z"/><path d="m256.309 256.747 13.157-3.957 26.601-12.512-.618-1.491-27.656 9.962-12.102 6.506z"/><path d="m255.254 256.31-6.506-12.102-9.962-27.656 1.491-.618 12.512 26.601 3.957 13.157z"/><path d="m255.254 256.31 3.957 13.157 12.512 26.601 1.491-.618-9.962-27.656-6.506-12.102z"/><path d="m255.691 256.747-13.157-3.957-26.601-12.512.618-1.491 27.656 9.962 12.102 6.506z"/><path d="m255.691 256.747 12.102 6.506 27.656 9.962.618-1.491-26.601-12.512-13.157-3.957z"/><path d="m255.254 255.692 3.957-13.157 12.512-26.601 1.491.618-9.962 27.656-6.506 12.102z"/><path d="m255.254 255.692-6.506 12.102-9.962 27.656 1.491.618 12.512-26.601 3.957-13.157z"/></g><circle cx="256" cy="256.001" fill="#f5f5f5" r="7.256"/><circle cx="256" cy="256.001" fill="#41479b" r="4.351"/></svg>
