<svg enable-background="new 0 0 512.001 512.001" viewBox="0 0 512.001 512.001" xmlns="http://www.w3.org/2000/svg"><path d="m503.172 423.725h-494.344c-4.875 0-8.828-3.953-8.828-8.828v-317.793c0-4.875 3.953-8.828 8.828-8.828h494.345c4.875 0 8.828 3.953 8.828 8.828v317.793c-.001 4.876-3.954 8.828-8.829 8.828z" fill="#f5f5f5"/><path d="m512 114.081h-512v-16.977c0-4.875 3.953-8.828 8.828-8.828h494.345c4.875 0 8.828 3.953 8.828 8.828z" fill="#ff4b55"/><path d="m0 191.491h512v25.804h-512z" fill="#ff4b55"/><path d="m0 139.881h512v25.804h-512z" fill="#ff4b55"/><path d="m512 268.903h-503.172c-4.875 0-8.828-3.953-8.828-8.828v-16.977h512z" fill="#ff4b55"/><path d="m0 346.321h512v25.804h-512z" fill="#ff4b55"/><path d="m503.172 423.725h-494.344c-4.875 0-8.828-3.953-8.828-8.828v-16.976h512v16.977c0 4.875-3.953 8.827-8.828 8.827z" fill="#ff4b55"/><path d="m0 294.711h512v25.804h-512z" fill="#ff4b55"/><path d="m229.517 88.277h-220.689c-4.875 0-8.828 3.952-8.828 8.827v162.97c0 4.875 3.953 8.828 8.828 8.828h220.69c4.875 0 8.828-3.953 8.828-8.828v-162.97c-.001-4.875-3.954-8.827-8.829-8.827z" fill="#41479b"/><g fill="#f5f5f5"><path d="m24.789 108.538 1.954 5.86 6.177.047c.8.007 1.131 1.027.488 1.502l-4.969 3.67 1.864 5.889c.242.762-.627 1.394-1.278.928l-5.025-3.591-5.025 3.592c-.651.465-1.518-.166-1.278-.928l1.864-5.889-4.969-3.67c-.643-.476-.312-1.495.488-1.502l6.177-.047 1.954-5.86c.252-.76 1.324-.76 1.578-.001z"/><path d="m24.789 139.192 1.954 5.86 6.177.047c.8.007 1.131 1.027.488 1.502l-4.969 3.67 1.864 5.889c.242.762-.627 1.394-1.278.928l-5.025-3.591-5.025 3.592c-.651.465-1.518-.166-1.278-.928l1.864-5.889-4.969-3.67c-.643-.476-.312-1.495.488-1.502l6.177-.047 1.954-5.86c.252-.759 1.324-.759 1.578-.001z"/><path d="m24.789 169.846 1.954 5.86 6.177.047c.8.007 1.131 1.027.488 1.502l-4.969 3.67 1.864 5.889c.242.762-.627 1.394-1.278.928l-5.025-3.591-5.025 3.592c-.651.465-1.518-.166-1.278-.928l1.864-5.889-4.969-3.67c-.643-.476-.312-1.495.488-1.502l6.177-.047 1.954-5.86c.252-.759 1.324-.759 1.578-.001z"/><path d="m24.789 200.501 1.954 5.86 6.177.047c.8.007 1.131 1.027.488 1.502l-4.969 3.67 1.864 5.889c.242.762-.627 1.394-1.278.928l-5.025-3.591-5.025 3.592c-.651.465-1.518-.166-1.278-.928l1.864-5.889-4.969-3.67c-.643-.476-.312-1.495.488-1.502l6.177-.047 1.954-5.86c.252-.76 1.324-.76 1.578-.001z"/><path d="m24.789 231.155 1.954 5.86 6.177.047c.8.007 1.131 1.027.488 1.502l-4.969 3.67 1.864 5.889c.242.762-.627 1.394-1.278.928l-5.025-3.591-5.025 3.592c-.651.465-1.518-.166-1.278-.928l1.864-5.889-4.969-3.67c-.643-.476-.312-1.495.488-1.502l6.177-.047 1.954-5.86c.252-.761 1.324-.761 1.578-.001z"/><path d="m48.582 123.567 1.954 5.86 6.177.047c.8.007 1.131 1.027.488 1.502l-4.969 3.67 1.864 5.889c.242.762-.627 1.394-1.278.928l-5.025-3.592-5.025 3.592c-.651.465-1.518-.166-1.278-.928l1.864-5.889-4.969-3.67c-.643-.476-.312-1.495.488-1.502l6.177-.047 1.954-5.86c.251-.758 1.325-.758 1.578 0z"/><path d="m48.582 154.222 1.954 5.86 6.177.047c.8.007 1.131 1.027.488 1.502l-4.969 3.67 1.864 5.889c.242.762-.627 1.394-1.278.928l-5.025-3.592-5.025 3.592c-.651.465-1.518-.165-1.278-.928l1.864-5.889-4.969-3.67c-.643-.476-.312-1.495.488-1.502l6.177-.047 1.954-5.86c.251-.759 1.325-.759 1.578 0z"/><path d="m48.582 184.876 1.954 5.86 6.177.047c.8.007 1.131 1.027.488 1.502l-4.969 3.67 1.864 5.889c.242.762-.627 1.394-1.278.928l-5.025-3.592-5.025 3.592c-.651.465-1.518-.166-1.278-.928l1.864-5.889-4.969-3.67c-.643-.476-.312-1.495.488-1.502l6.177-.047 1.954-5.86c.251-.759 1.325-.759 1.578 0z"/><path d="m48.582 215.53 1.954 5.86 6.177.047c.8.007 1.131 1.027.488 1.502l-4.969 3.67 1.864 5.889c.242.762-.627 1.394-1.278.928l-5.025-3.592-5.025 3.592c-.651.465-1.518-.166-1.278-.928l1.864-5.889-4.969-3.67c-.643-.476-.312-1.495.488-1.502l6.177-.047 1.954-5.86c.251-.758 1.325-.758 1.578 0z"/><path d="m72.375 108.538 1.954 5.86 6.177.047c.8.007 1.131 1.027.488 1.502l-4.969 3.67 1.864 5.889c.242.762-.627 1.394-1.278.928l-5.025-3.592-5.025 3.592c-.651.465-1.518-.166-1.278-.928l1.864-5.889-4.969-3.67c-.643-.476-.312-1.495.488-1.502l6.177-.047 1.954-5.86c.252-.759 1.325-.759 1.578 0z"/><path d="m72.375 139.192 1.954 5.86 6.177.047c.8.007 1.131 1.027.488 1.502l-4.969 3.67 1.864 5.889c.242.762-.627 1.394-1.278.928l-5.025-3.592-5.025 3.592c-.651.465-1.518-.166-1.278-.928l1.864-5.889-4.969-3.67c-.643-.476-.312-1.495.488-1.502l6.177-.047 1.954-5.86c.252-.758 1.325-.758 1.578 0z"/><path d="m72.375 169.846 1.954 5.86 6.177.047c.8.007 1.131 1.027.488 1.502l-4.969 3.67 1.864 5.889c.242.762-.627 1.394-1.278.928l-5.025-3.592-5.025 3.592c-.651.465-1.518-.166-1.278-.928l1.864-5.889-4.969-3.67c-.643-.476-.312-1.495.488-1.502l6.177-.047 1.954-5.86c.252-.758 1.325-.758 1.578 0z"/><path d="m72.375 200.501 1.954 5.86 6.177.047c.8.007 1.131 1.027.488 1.502l-4.969 3.67 1.864 5.889c.242.762-.627 1.394-1.278.928l-5.025-3.592-5.025 3.592c-.651.465-1.518-.166-1.278-.928l1.864-5.889-4.969-3.67c-.643-.476-.312-1.495.488-1.502l6.177-.047 1.954-5.86c.252-.759 1.325-.759 1.578 0z"/><path d="m72.375 231.155 1.954 5.86 6.177.047c.8.007 1.131 1.027.488 1.502l-4.969 3.67 1.864 5.889c.242.762-.627 1.394-1.278.928l-5.025-3.592-5.025 3.592c-.651.465-1.518-.166-1.278-.928l1.864-5.889-4.969-3.67c-.643-.476-.312-1.495.488-1.502l6.177-.047 1.954-5.86c.252-.76 1.325-.76 1.578 0z"/><path d="m96.169 123.567 1.954 5.86 6.177.047c.8.007 1.131 1.027.488 1.502l-4.969 3.67 1.864 5.889c.242.762-.627 1.394-1.278.928l-5.025-3.592-5.025 3.592c-.651.465-1.518-.166-1.278-.928l1.864-5.889-4.969-3.67c-.643-.476-.312-1.495.488-1.502l6.177-.047 1.954-5.86c.251-.758 1.325-.758 1.578 0z"/><path d="m96.169 154.222 1.954 5.86 6.177.047c.8.007 1.131 1.027.488 1.502l-4.969 3.67 1.864 5.889c.242.762-.627 1.394-1.278.928l-5.025-3.592-5.025 3.592c-.651.465-1.518-.165-1.278-.928l1.864-5.889-4.969-3.67c-.643-.476-.312-1.495.488-1.502l6.177-.047 1.954-5.86c.251-.759 1.325-.759 1.578 0z"/><path d="m96.169 184.876 1.954 5.86 6.177.047c.8.007 1.131 1.027.488 1.502l-4.969 3.67 1.864 5.889c.242.762-.627 1.394-1.278.928l-5.025-3.592-5.025 3.592c-.651.465-1.518-.166-1.278-.928l1.864-5.889-4.969-3.67c-.643-.476-.312-1.495.488-1.502l6.177-.047 1.954-5.86c.251-.759 1.325-.759 1.578 0z"/><path d="m96.169 215.53 1.954 5.86 6.177.047c.8.007 1.131 1.027.488 1.502l-4.969 3.67 1.864 5.889c.242.762-.627 1.394-1.278.928l-5.025-3.592-5.025 3.592c-.651.465-1.518-.166-1.278-.928l1.864-5.889-4.969-3.67c-.643-.476-.312-1.495.488-1.502l6.177-.047 1.954-5.86c.251-.758 1.325-.758 1.578 0z"/><path d="m119.962 108.538 1.954 5.86 6.177.047c.8.007 1.131 1.027.488 1.502l-4.969 3.67 1.864 5.889c.242.762-.627 1.394-1.278.928l-5.026-3.592-5.025 3.592c-.651.465-1.518-.166-1.278-.928l1.864-5.889-4.969-3.67c-.643-.476-.312-1.495.488-1.502l6.177-.047 1.954-5.86c.253-.759 1.326-.759 1.579 0z"/><path d="m119.962 139.192 1.954 5.86 6.177.047c.8.007 1.131 1.027.488 1.502l-4.969 3.67 1.864 5.889c.242.762-.627 1.394-1.278.928l-5.026-3.592-5.025 3.592c-.651.465-1.518-.166-1.278-.928l1.864-5.889-4.969-3.67c-.643-.476-.312-1.495.488-1.502l6.177-.047 1.954-5.86c.253-.758 1.326-.758 1.579 0z"/><path d="m119.962 169.846 1.954 5.86 6.177.047c.8.007 1.131 1.027.488 1.502l-4.969 3.67 1.864 5.889c.242.762-.627 1.394-1.278.928l-5.026-3.592-5.025 3.592c-.651.465-1.518-.166-1.278-.928l1.864-5.889-4.969-3.67c-.643-.476-.312-1.495.488-1.502l6.177-.047 1.954-5.86c.253-.758 1.326-.758 1.579 0z"/><path d="m119.962 200.501 1.954 5.86 6.177.047c.8.007 1.131 1.027.488 1.502l-4.969 3.67 1.864 5.889c.242.762-.627 1.394-1.278.928l-5.026-3.592-5.025 3.592c-.651.465-1.518-.166-1.278-.928l1.864-5.889-4.969-3.67c-.643-.476-.312-1.495.488-1.502l6.177-.047 1.954-5.86c.253-.759 1.326-.759 1.579 0z"/><path d="m119.962 231.155 1.954 5.86 6.177.047c.8.007 1.131 1.027.488 1.502l-4.969 3.67 1.864 5.889c.242.762-.627 1.394-1.278.928l-5.026-3.592-5.025 3.592c-.651.465-1.518-.166-1.278-.928l1.864-5.889-4.969-3.67c-.643-.476-.312-1.495.488-1.502l6.177-.047 1.954-5.86c.253-.76 1.326-.76 1.579 0z"/><path d="m143.755 123.567 1.954 5.86 6.177.047c.8.007 1.131 1.027.488 1.502l-4.969 3.67 1.864 5.889c.242.762-.627 1.394-1.278.928l-5.025-3.592-5.025 3.592c-.651.465-1.518-.166-1.278-.928l1.864-5.889-4.969-3.67c-.643-.476-.312-1.495.488-1.502l6.177-.047 1.954-5.86c.253-.758 1.325-.758 1.578 0z"/><path d="m143.755 154.222 1.954 5.86 6.177.047c.8.007 1.131 1.027.488 1.502l-4.969 3.67 1.864 5.889c.242.762-.627 1.394-1.278.928l-5.025-3.592-5.025 3.592c-.651.465-1.518-.165-1.278-.928l1.864-5.889-4.969-3.67c-.643-.476-.312-1.495.488-1.502l6.177-.047 1.954-5.86c.253-.759 1.325-.759 1.578 0z"/><path d="m143.755 184.876 1.954 5.86 6.177.047c.8.007 1.131 1.027.488 1.502l-4.969 3.67 1.864 5.889c.242.762-.627 1.394-1.278.928l-5.025-3.592-5.025 3.592c-.651.465-1.518-.166-1.278-.928l1.864-5.889-4.969-3.67c-.643-.476-.312-1.495.488-1.502l6.177-.047 1.954-5.86c.253-.759 1.325-.759 1.578 0z"/><path d="m143.755 215.53 1.954 5.86 6.177.047c.8.007 1.131 1.027.488 1.502l-4.969 3.67 1.864 5.889c.242.762-.627 1.394-1.278.928l-5.025-3.592-5.025 3.592c-.651.465-1.518-.166-1.278-.928l1.864-5.889-4.969-3.67c-.643-.476-.312-1.495.488-1.502l6.177-.047 1.954-5.86c.253-.758 1.325-.758 1.578 0z"/><path d="m167.549 108.538 1.954 5.86 6.177.047c.8.007 1.131 1.027.488 1.502l-4.969 3.67 1.864 5.889c.242.762-.627 1.394-1.278.928l-5.025-3.592-5.025 3.592c-.651.465-1.518-.166-1.278-.928l1.864-5.889-4.969-3.67c-.643-.476-.312-1.495.488-1.502l6.177-.047 1.954-5.86c.251-.759 1.325-.759 1.578 0z"/><path d="m167.549 139.192 1.954 5.86 6.177.047c.8.007 1.131 1.027.488 1.502l-4.969 3.67 1.864 5.889c.242.762-.627 1.394-1.278.928l-5.025-3.592-5.025 3.592c-.651.465-1.518-.166-1.278-.928l1.864-5.889-4.969-3.67c-.643-.476-.312-1.495.488-1.502l6.177-.047 1.954-5.86c.251-.758 1.325-.758 1.578 0z"/><path d="m167.549 169.846 1.954 5.86 6.177.047c.8.007 1.131 1.027.488 1.502l-4.969 3.67 1.864 5.889c.242.762-.627 1.394-1.278.928l-5.025-3.592-5.025 3.592c-.651.465-1.518-.166-1.278-.928l1.864-5.889-4.969-3.67c-.643-.476-.312-1.495.488-1.502l6.177-.047 1.954-5.86c.251-.758 1.325-.758 1.578 0z"/><path d="m167.549 200.501 1.954 5.86 6.177.047c.8.007 1.131 1.027.488 1.502l-4.969 3.67 1.864 5.889c.242.762-.627 1.394-1.278.928l-5.025-3.592-5.025 3.592c-.651.465-1.518-.166-1.278-.928l1.864-5.889-4.969-3.67c-.643-.476-.312-1.495.488-1.502l6.177-.047 1.954-5.86c.251-.759 1.325-.759 1.578 0z"/><path d="m167.549 231.155 1.954 5.86 6.177.047c.8.007 1.131 1.027.488 1.502l-4.969 3.67 1.864 5.889c.242.762-.627 1.394-1.278.928l-5.025-3.592-5.025 3.592c-.651.465-1.518-.166-1.278-.928l1.864-5.889-4.969-3.67c-.643-.476-.312-1.495.488-1.502l6.177-.047 1.954-5.86c.251-.76 1.325-.76 1.578 0z"/><path d="m191.342 123.567 1.954 5.86 6.177.047c.8.007 1.131 1.027.488 1.502l-4.969 3.67 1.864 5.889c.242.762-.627 1.394-1.278.928l-5.025-3.592-5.025 3.592c-.651.465-1.518-.166-1.278-.928l1.864-5.889-4.969-3.67c-.643-.476-.312-1.495.488-1.502l6.177-.047 1.954-5.86c.252-.758 1.326-.758 1.578 0z"/><path d="m191.342 154.222 1.954 5.86 6.177.047c.8.007 1.131 1.027.488 1.502l-4.969 3.67 1.864 5.889c.242.762-.627 1.394-1.278.928l-5.025-3.592-5.025 3.592c-.651.465-1.518-.165-1.278-.928l1.864-5.889-4.969-3.67c-.643-.476-.312-1.495.488-1.502l6.177-.047 1.954-5.86c.252-.759 1.326-.759 1.578 0z"/><path d="m191.342 184.876 1.954 5.86 6.177.047c.8.007 1.131 1.027.488 1.502l-4.969 3.67 1.864 5.889c.242.762-.627 1.394-1.278.928l-5.025-3.592-5.025 3.592c-.651.465-1.518-.166-1.278-.928l1.864-5.889-4.969-3.67c-.643-.476-.312-1.495.488-1.502l6.177-.047 1.954-5.86c.252-.759 1.326-.759 1.578 0z"/><path d="m191.342 215.53 1.954 5.86 6.177.047c.8.007 1.131 1.027.488 1.502l-4.969 3.67 1.864 5.889c.242.762-.627 1.394-1.278.928l-5.025-3.592-5.025 3.592c-.651.465-1.518-.166-1.278-.928l1.864-5.889-4.969-3.67c-.643-.476-.312-1.495.488-1.502l6.177-.047 1.954-5.86c.252-.758 1.326-.758 1.578 0z"/><path d="m215.136 108.538 1.954 5.86 6.177.047c.8.007 1.131 1.027.488 1.502l-4.969 3.67 1.864 5.889c.242.762-.627 1.394-1.278.928l-5.025-3.592-5.025 3.592c-.651.465-1.518-.166-1.278-.928l1.864-5.889-4.969-3.67c-.643-.476-.312-1.495.488-1.502l6.177-.047 1.954-5.86c.252-.759 1.324-.759 1.578 0z"/><path d="m215.136 139.192 1.954 5.86 6.177.047c.8.007 1.131 1.027.488 1.502l-4.969 3.67 1.864 5.889c.242.762-.627 1.394-1.278.928l-5.025-3.592-5.025 3.592c-.651.465-1.518-.166-1.278-.928l1.864-5.889-4.969-3.67c-.643-.476-.312-1.495.488-1.502l6.177-.047 1.954-5.86c.252-.758 1.324-.758 1.578 0z"/><path d="m215.136 169.846 1.954 5.86 6.177.047c.8.007 1.131 1.027.488 1.502l-4.969 3.67 1.864 5.889c.242.762-.627 1.394-1.278.928l-5.025-3.592-5.025 3.592c-.651.465-1.518-.166-1.278-.928l1.864-5.889-4.969-3.67c-.643-.476-.312-1.495.488-1.502l6.177-.047 1.954-5.86c.252-.758 1.324-.758 1.578 0z"/><path d="m215.136 200.501 1.954 5.86 6.177.047c.8.007 1.131 1.027.488 1.502l-4.969 3.67 1.864 5.889c.242.762-.627 1.394-1.278.928l-5.025-3.592-5.025 3.592c-.651.465-1.518-.166-1.278-.928l1.864-5.889-4.969-3.67c-.643-.476-.312-1.495.488-1.502l6.177-.047 1.954-5.86c.252-.759 1.324-.759 1.578 0z"/><path d="m215.136 231.155 1.954 5.86 6.177.047c.8.007 1.131 1.027.488 1.502l-4.969 3.67 1.864 5.889c.242.762-.627 1.394-1.278.928l-5.025-3.592-5.025 3.592c-.651.465-1.518-.166-1.278-.928l1.864-5.889-4.969-3.67c-.643-.476-.312-1.495.488-1.502l6.177-.047 1.954-5.86c.252-.76 1.324-.76 1.578 0z"/></g></svg>