<svg width="835" height="97" viewBox="0 0 835 97" fill="none" xmlns="http://www.w3.org/2000/svg">
<path d="M48.6999 0.199951C39.1359 0.219732 29.7921 3.07262 21.8481 8.39848C13.9041 13.7243 7.71603 21.2844 4.06515 30.1242C0.414267 38.9641 -0.535785 48.6874 1.33493 58.0668C3.20564 67.4461 7.81324 76.061 14.5761 82.8238C21.3389 89.5867 29.9538 94.1943 39.3331 96.065C48.7125 97.9357 58.4358 96.9856 67.2757 93.3347C76.1155 89.6839 83.6756 83.4958 89.0014 75.5518C94.3273 67.6078 97.1802 58.264 97.1999 48.7V0.199951H48.6999Z" fill="#F0047F"/>
<path d="M47.1 50.2V84.2C38.2084 83.8086 29.7859 80.1008 23.4925 73.8074C17.1991 67.514 13.4914 59.0916 13.1 50.2H47.1ZM50.2 50.3H84.2C83.8086 59.1916 80.1008 67.614 73.8074 73.9074C67.514 80.2008 59.0916 83.9086 50.2 84.3V50.3ZM50.2 13.1H84.2V47.1H50.2V13.1V13.1Z" fill="white" stroke="#F0047F"/>
<path d="M148.555 56.64C148.555 62.08 146.955 63.84 143.995 63.84C141.115 63.84 139.675 61.68 139.435 56.96H123.355V57.36C123.355 70 131.915 77.12 143.435 77.12C152.955 77.12 158.955 72.4 161.675 66.72C163.035 63.84 163.675 59.36 163.675 53.36V16.8H148.555V56.64Z" fill="white"/>
<path d="M219.002 76V31.6H205.722V36.32H205.562C203.002 32.24 197.962 30.08 192.522 30.08C179.802 30.08 170.282 40.64 170.282 53.76C170.282 67.2 179.402 77.5201 192.522 77.5201C198.362 77.5201 203.642 75.1201 205.562 71.2001H205.722V76H219.002ZM194.602 65.12C188.442 65.12 183.562 60.08 183.562 53.92C183.562 47.52 188.362 42.48 194.442 42.48C200.682 42.48 205.722 47.52 205.722 53.76C205.722 60.16 200.842 65.12 194.602 65.12Z" fill="white"/>
<path d="M296.851 76V48.56C296.851 36.16 290.291 30.08 280.371 30.08C274.291 30.08 269.491 32.96 266.291 38C263.491 32.96 259.251 30.08 253.491 30.08C247.811 30.08 243.571 32.16 241.251 36.32H241.091V31.6H228.691V76H241.971V52.08C241.971 45.92 244.291 42.56 249.491 42.56C254.051 42.56 256.131 45.76 256.131 51.52V76H269.411V51.44C269.411 45.6 271.731 42.56 276.771 42.56C281.331 42.56 283.571 45.12 283.571 52.08V76H296.851Z" fill="white"/>
<path d="M338.111 44.08C337.471 35.36 330.671 30.08 321.071 30.08C312.111 30.08 303.871 35.76 303.871 44.56C303.871 49.76 306.831 54.16 318.031 57.6C324.671 59.68 326.191 60.96 326.191 63.44C326.191 65.52 323.871 66.8801 321.551 66.8801C318.911 66.8801 316.911 65.6 316.511 62.8H303.311C304.271 71.84 311.391 77.5201 321.391 77.5201C331.471 77.5201 339.471 71.68 339.471 62.4C339.471 55.92 336.031 51.68 325.471 48.88C319.311 47.28 317.151 46.08 317.151 43.68C317.151 42 318.751 40.72 320.991 40.72C323.151 40.72 324.991 41.52 325.071 44.08H338.111Z" fill="white"/>
<path d="M362.032 76V41.68H368.432V31.6H362.032V16.8H348.752V31.6H342.192V41.68H348.752V76H362.032Z" fill="white"/>
<path d="M419.627 76V31.6H406.347V36.32H406.187C403.627 32.24 398.587 30.08 393.147 30.08C380.427 30.08 370.907 40.64 370.907 53.76C370.907 67.2 380.027 77.5201 393.147 77.5201C398.987 77.5201 404.267 75.1201 406.187 71.2001H406.347V76H419.627ZM395.227 65.12C389.067 65.12 384.187 60.08 384.187 53.92C384.187 47.52 388.987 42.48 395.067 42.48C401.307 42.48 406.347 47.52 406.347 53.76C406.347 60.16 401.467 65.12 395.227 65.12Z" fill="white"/>
<path d="M474.116 48.72C471.636 37.44 462.116 30.08 450.436 30.08C437.636 30.08 427.156 40.4 427.156 53.68C427.156 66.8001 437.556 77.44 450.676 77.44C462.036 77.44 471.556 70.24 474.196 59.12H460.676C458.676 62.96 455.556 65.04 451.076 65.04C444.916 65.04 440.516 60.24 440.516 53.76C440.516 47.52 444.676 42.48 450.756 42.48C455.316 42.48 458.756 44.56 460.676 48.72H474.116Z" fill="white"/>
<path d="M521.851 76L505.611 51.12L522.331 31.6H506.571L494.251 47.68H494.091V16.8H480.811V76H494.091V54.64H494.251L506.811 76H521.851Z" fill="white"/>
<path d="M573.244 76C591.724 76 603.244 65.92 603.244 46.4C603.244 34.32 597.964 25.2 589.564 20.4C585.404 18.08 579.564 16.8 572.204 16.8H552.044V76H573.244ZM567.164 62.72V30.08H574.044C582.764 30.08 588.124 35.92 588.124 46.48C588.124 57.28 582.684 62.72 573.964 62.72H567.164Z" fill="white"/>
<path d="M655.659 57.84C655.899 56.64 655.979 55.6 655.979 54.32C655.979 40.56 645.819 30.08 632.539 30.08C619.499 30.08 609.259 41.12 609.259 53.92C609.259 67.12 619.979 77.44 632.779 77.44C642.139 77.44 650.219 71.76 654.459 62.08H640.859C638.699 64.88 636.379 66.2401 632.779 66.2401C627.339 66.2401 623.099 62.8801 622.379 57.84H655.659ZM622.539 48.88C623.579 44.16 627.739 41.28 632.539 41.28C637.659 41.28 641.659 44.32 642.699 48.88H622.539Z" fill="white"/>
<path d="M676.658 90.8V72C680.258 75.92 684.818 77.5201 690.018 77.5201C702.738 77.5201 711.618 66.88 711.618 54.24C711.618 40.4 702.658 30.08 690.018 30.08C684.498 30.08 679.618 32.08 676.098 36.48H675.858V31.6H663.378V90.8H676.658ZM687.218 65.12C680.898 65.12 676.098 60.08 676.098 53.84C676.098 47.44 681.058 42.48 687.138 42.48C693.538 42.48 698.338 47.6 698.338 53.84C698.338 60.0001 693.538 65.12 687.218 65.12Z" fill="white"/>
<path d="M731.658 76V16.8H718.378V76H731.658Z" fill="white"/>
<path d="M787.029 53.6C787.029 40.16 776.469 30.16 763.109 30.16C749.829 30.16 739.189 40 739.189 53.76C739.189 67.3601 749.589 77.3601 763.109 77.3601C776.469 77.3601 787.029 67.52 787.029 53.6ZM763.109 64.96C757.109 64.96 752.469 59.84 752.469 53.76C752.469 47.68 757.189 42.56 763.029 42.56C769.269 42.56 773.749 47.84 773.749 53.76C773.749 59.68 769.349 64.96 763.109 64.96Z" fill="white"/>
<path d="M811.787 90.8L834.028 31.6H819.948L811.468 57.36H811.307L802.427 31.6H788.268L804.747 73.76L797.708 90.8H811.787Z" fill="white"/>
</svg>
